%TF.GenerationSoftware,KiCad,Pcbnew,10.0.3*%
%TF.CreationDate,2026-05-29T16:30:55-07:00*%
%TF.ProjectId,default,64656661-756c-4742-9e6b-696361645f70,rev?*%
%TF.SameCoordinates,Original*%
%TF.FileFunction,Legend,Top*%
%TF.FilePolarity,Positive*%
%FSLAX46Y46*%
G04 Gerber Fmt 4.6, Leading zero omitted, Abs format (unit mm)*
G04 Created by KiCad (PCBNEW 10.0.3) date 2026-05-29 16:30:55*
%MOMM*%
%LPD*%
G01*
G04 APERTURE LIST*
%ADD10C,0.150000*%
%ADD11C,0.120000*%
G04 APERTURE END LIST*
D10*
X78001905Y-74154819D02*
X78001905Y-73154819D01*
X78001905Y-73154819D02*
X78240000Y-73154819D01*
X78240000Y-73154819D02*
X78382857Y-73202438D01*
X78382857Y-73202438D02*
X78478095Y-73297676D01*
X78478095Y-73297676D02*
X78525714Y-73392914D01*
X78525714Y-73392914D02*
X78573333Y-73583390D01*
X78573333Y-73583390D02*
X78573333Y-73726247D01*
X78573333Y-73726247D02*
X78525714Y-73916723D01*
X78525714Y-73916723D02*
X78478095Y-74011961D01*
X78478095Y-74011961D02*
X78382857Y-74107200D01*
X78382857Y-74107200D02*
X78240000Y-74154819D01*
X78240000Y-74154819D02*
X78001905Y-74154819D01*
X79525714Y-74154819D02*
X78954286Y-74154819D01*
X79240000Y-74154819D02*
X79240000Y-73154819D01*
X79240000Y-73154819D02*
X79144762Y-73297676D01*
X79144762Y-73297676D02*
X79049524Y-73392914D01*
X79049524Y-73392914D02*
X78954286Y-73440533D01*
X93388095Y-67804819D02*
X93388095Y-68614342D01*
X93388095Y-68614342D02*
X93435714Y-68709580D01*
X93435714Y-68709580D02*
X93483333Y-68757200D01*
X93483333Y-68757200D02*
X93578571Y-68804819D01*
X93578571Y-68804819D02*
X93769047Y-68804819D01*
X93769047Y-68804819D02*
X93864285Y-68757200D01*
X93864285Y-68757200D02*
X93911904Y-68709580D01*
X93911904Y-68709580D02*
X93959523Y-68614342D01*
X93959523Y-68614342D02*
X93959523Y-67804819D01*
X94959523Y-68804819D02*
X94388095Y-68804819D01*
X94673809Y-68804819D02*
X94673809Y-67804819D01*
X94673809Y-67804819D02*
X94578571Y-67947676D01*
X94578571Y-67947676D02*
X94483333Y-68042914D01*
X94483333Y-68042914D02*
X94388095Y-68090533D01*
X107333333Y-68204819D02*
X106857143Y-68204819D01*
X106857143Y-68204819D02*
X106857143Y-67204819D01*
X108190476Y-68204819D02*
X107619048Y-68204819D01*
X107904762Y-68204819D02*
X107904762Y-67204819D01*
X107904762Y-67204819D02*
X107809524Y-67347676D01*
X107809524Y-67347676D02*
X107714286Y-67442914D01*
X107714286Y-67442914D02*
X107619048Y-67490533D01*
X133666666Y-59302319D02*
X133666666Y-60016604D01*
X133666666Y-60016604D02*
X133619047Y-60159461D01*
X133619047Y-60159461D02*
X133523809Y-60254700D01*
X133523809Y-60254700D02*
X133380952Y-60302319D01*
X133380952Y-60302319D02*
X133285714Y-60302319D01*
X134095238Y-59397557D02*
X134142857Y-59349938D01*
X134142857Y-59349938D02*
X134238095Y-59302319D01*
X134238095Y-59302319D02*
X134476190Y-59302319D01*
X134476190Y-59302319D02*
X134571428Y-59349938D01*
X134571428Y-59349938D02*
X134619047Y-59397557D01*
X134619047Y-59397557D02*
X134666666Y-59492795D01*
X134666666Y-59492795D02*
X134666666Y-59588033D01*
X134666666Y-59588033D02*
X134619047Y-59730890D01*
X134619047Y-59730890D02*
X134047619Y-60302319D01*
X134047619Y-60302319D02*
X134666666Y-60302319D01*
X67166666Y-73802319D02*
X67166666Y-74516604D01*
X67166666Y-74516604D02*
X67119047Y-74659461D01*
X67119047Y-74659461D02*
X67023809Y-74754700D01*
X67023809Y-74754700D02*
X66880952Y-74802319D01*
X66880952Y-74802319D02*
X66785714Y-74802319D01*
X68166666Y-74802319D02*
X67595238Y-74802319D01*
X67880952Y-74802319D02*
X67880952Y-73802319D01*
X67880952Y-73802319D02*
X67785714Y-73945176D01*
X67785714Y-73945176D02*
X67690476Y-74040414D01*
X67690476Y-74040414D02*
X67595238Y-74088033D01*
X92583333Y-55109580D02*
X92535714Y-55157200D01*
X92535714Y-55157200D02*
X92392857Y-55204819D01*
X92392857Y-55204819D02*
X92297619Y-55204819D01*
X92297619Y-55204819D02*
X92154762Y-55157200D01*
X92154762Y-55157200D02*
X92059524Y-55061961D01*
X92059524Y-55061961D02*
X92011905Y-54966723D01*
X92011905Y-54966723D02*
X91964286Y-54776247D01*
X91964286Y-54776247D02*
X91964286Y-54633390D01*
X91964286Y-54633390D02*
X92011905Y-54442914D01*
X92011905Y-54442914D02*
X92059524Y-54347676D01*
X92059524Y-54347676D02*
X92154762Y-54252438D01*
X92154762Y-54252438D02*
X92297619Y-54204819D01*
X92297619Y-54204819D02*
X92392857Y-54204819D01*
X92392857Y-54204819D02*
X92535714Y-54252438D01*
X92535714Y-54252438D02*
X92583333Y-54300057D01*
X92964286Y-54300057D02*
X93011905Y-54252438D01*
X93011905Y-54252438D02*
X93107143Y-54204819D01*
X93107143Y-54204819D02*
X93345238Y-54204819D01*
X93345238Y-54204819D02*
X93440476Y-54252438D01*
X93440476Y-54252438D02*
X93488095Y-54300057D01*
X93488095Y-54300057D02*
X93535714Y-54395295D01*
X93535714Y-54395295D02*
X93535714Y-54490533D01*
X93535714Y-54490533D02*
X93488095Y-54633390D01*
X93488095Y-54633390D02*
X92916667Y-55204819D01*
X92916667Y-55204819D02*
X93535714Y-55204819D01*
X121833333Y-68609580D02*
X121785714Y-68657200D01*
X121785714Y-68657200D02*
X121642857Y-68704819D01*
X121642857Y-68704819D02*
X121547619Y-68704819D01*
X121547619Y-68704819D02*
X121404762Y-68657200D01*
X121404762Y-68657200D02*
X121309524Y-68561961D01*
X121309524Y-68561961D02*
X121261905Y-68466723D01*
X121261905Y-68466723D02*
X121214286Y-68276247D01*
X121214286Y-68276247D02*
X121214286Y-68133390D01*
X121214286Y-68133390D02*
X121261905Y-67942914D01*
X121261905Y-67942914D02*
X121309524Y-67847676D01*
X121309524Y-67847676D02*
X121404762Y-67752438D01*
X121404762Y-67752438D02*
X121547619Y-67704819D01*
X121547619Y-67704819D02*
X121642857Y-67704819D01*
X121642857Y-67704819D02*
X121785714Y-67752438D01*
X121785714Y-67752438D02*
X121833333Y-67800057D01*
X122785714Y-68704819D02*
X122214286Y-68704819D01*
X122500000Y-68704819D02*
X122500000Y-67704819D01*
X122500000Y-67704819D02*
X122404762Y-67847676D01*
X122404762Y-67847676D02*
X122309524Y-67942914D01*
X122309524Y-67942914D02*
X122214286Y-67990533D01*
%TO.C,D1*%
D11*
X75230000Y-77850000D02*
X80740000Y-77850000D01*
X75230000Y-74550000D02*
X80740000Y-74550000D01*
X75230000Y-74550000D02*
X75230000Y-77850000D01*
%TO.C,U1*%
X89325000Y-69800000D02*
X89325000Y-70750000D01*
X89325000Y-80200000D02*
X89325000Y-79250000D01*
X90690000Y-69800000D02*
X89325000Y-69800000D01*
X90690000Y-80200000D02*
X89325000Y-80200000D01*
X86500000Y-70790000D02*
X86160000Y-70320000D01*
X86840000Y-70320000D01*
X86500000Y-70790000D01*
G36*
X86500000Y-70790000D02*
G01*
X86160000Y-70320000D01*
X86840000Y-70320000D01*
X86500000Y-70790000D01*
G37*
%TO.C,L1*%
X113620000Y-75000000D02*
G75*
G02*
X101380000Y-75000000I-6120000J0D01*
G01*
X101380000Y-75000000D02*
G75*
G02*
X113620000Y-75000000I6120000J0D01*
G01*
%TO.C,J2*%
X128630000Y-60847500D02*
X139370000Y-60847500D01*
X128630000Y-64467500D02*
X129870000Y-64467500D01*
X128630000Y-65467500D02*
X129870000Y-65467500D01*
X128630000Y-66767500D02*
X129870000Y-66767500D01*
X128630000Y-68887500D02*
X128630000Y-60847500D01*
X131450000Y-68887500D02*
X128630000Y-68887500D01*
X133630000Y-64467500D02*
X134938000Y-64467500D01*
X133630000Y-65467500D02*
X134938000Y-65467500D01*
X133630000Y-66767500D02*
X136207000Y-66767500D01*
X137293000Y-66767500D02*
X139370000Y-66767500D01*
X138562000Y-64467500D02*
X139370000Y-64467500D01*
X138562000Y-65467500D02*
X139370000Y-65467500D01*
X139370000Y-60847500D02*
X139370000Y-68887500D01*
X139370000Y-68887500D02*
X132050000Y-68887500D01*
X131750000Y-68887500D02*
X132190000Y-69497500D01*
X131310000Y-69497500D01*
X131750000Y-68887500D01*
G36*
X132190000Y-69497500D02*
G01*
X131310000Y-69497500D01*
X131750000Y-68887500D01*
X132190000Y-69497500D01*
G37*
%TO.C,J1*%
X62130000Y-75347500D02*
X72870000Y-75347500D01*
X62130000Y-78967500D02*
X63370000Y-78967500D01*
X62130000Y-79967500D02*
X63370000Y-79967500D01*
X62130000Y-81267500D02*
X63370000Y-81267500D01*
X62130000Y-83387500D02*
X62130000Y-75347500D01*
X64950000Y-83387500D02*
X62130000Y-83387500D01*
X67130000Y-78967500D02*
X68438000Y-78967500D01*
X67130000Y-79967500D02*
X68438000Y-79967500D01*
X67130000Y-81267500D02*
X69707000Y-81267500D01*
X70793000Y-81267500D02*
X72870000Y-81267500D01*
X72062000Y-78967500D02*
X72870000Y-78967500D01*
X72062000Y-79967500D02*
X72870000Y-79967500D01*
X72870000Y-75347500D02*
X72870000Y-83387500D01*
X72870000Y-83387500D02*
X65550000Y-83387500D01*
X65250000Y-83387500D02*
X65690000Y-83997500D01*
X64810000Y-83997500D01*
X65250000Y-83387500D01*
G36*
X65690000Y-83997500D02*
G01*
X64810000Y-83997500D01*
X65250000Y-83387500D01*
X65690000Y-83997500D01*
G37*
%TO.C,C2*%
X88340302Y-57685000D02*
X89140302Y-57685000D01*
X88740302Y-57285000D02*
X88740302Y-58085000D01*
X92750000Y-55920000D02*
X92750000Y-64080000D01*
X92790000Y-55920000D02*
X92790000Y-64080000D01*
X92830000Y-55921000D02*
X92830000Y-64079000D01*
X92870000Y-55922000D02*
X92870000Y-64078000D01*
X92910000Y-55923000D02*
X92910000Y-64077000D01*
X92950000Y-55925000D02*
X92950000Y-64075000D01*
X92990000Y-55927000D02*
X92990000Y-64073000D01*
X93030000Y-55930000D02*
X93030000Y-64070000D01*
X93070000Y-55932000D02*
X93070000Y-64068000D01*
X93110000Y-55936000D02*
X93110000Y-64064000D01*
X93150000Y-55939000D02*
X93150000Y-64061000D01*
X93190000Y-55944000D02*
X93190000Y-64056000D01*
X93230000Y-55948000D02*
X93230000Y-64052000D01*
X93270000Y-55953000D02*
X93270000Y-64047000D01*
X93310000Y-55958000D02*
X93310000Y-64042000D01*
X93350000Y-55964000D02*
X93350000Y-64036000D01*
X93390000Y-55970000D02*
X93390000Y-64030000D01*
X93430000Y-55977000D02*
X93430000Y-64023000D01*
X93470000Y-55983000D02*
X93470000Y-58960000D01*
X93470000Y-61040000D02*
X93470000Y-64017000D01*
X93510000Y-55991000D02*
X93510000Y-58960000D01*
X93510000Y-61040000D02*
X93510000Y-64009000D01*
X93550000Y-55998000D02*
X93550000Y-58960000D01*
X93550000Y-61040000D02*
X93550000Y-64002000D01*
X93590000Y-56007000D02*
X93590000Y-58960000D01*
X93590000Y-61040000D02*
X93590000Y-63993000D01*
X93630000Y-56015000D02*
X93630000Y-58960000D01*
X93630000Y-61040000D02*
X93630000Y-63985000D01*
X93670000Y-56024000D02*
X93670000Y-58960000D01*
X93670000Y-61040000D02*
X93670000Y-63976000D01*
X93710000Y-56033000D02*
X93710000Y-58960000D01*
X93710000Y-61040000D02*
X93710000Y-63967000D01*
X93750000Y-56043000D02*
X93750000Y-58960000D01*
X93750000Y-61040000D02*
X93750000Y-63957000D01*
X93790000Y-56053000D02*
X93790000Y-58960000D01*
X93790000Y-61040000D02*
X93790000Y-63947000D01*
X93830000Y-56064000D02*
X93830000Y-58960000D01*
X93830000Y-61040000D02*
X93830000Y-63936000D01*
X93870000Y-56075000D02*
X93870000Y-58960000D01*
X93870000Y-61040000D02*
X93870000Y-63925000D01*
X93910000Y-56087000D02*
X93910000Y-58960000D01*
X93910000Y-61040000D02*
X93910000Y-63913000D01*
X93950000Y-56099000D02*
X93950000Y-58960000D01*
X93950000Y-61040000D02*
X93950000Y-63901000D01*
X93990000Y-56111000D02*
X93990000Y-58960000D01*
X93990000Y-61040000D02*
X93990000Y-63889000D01*
X94030000Y-56124000D02*
X94030000Y-58960000D01*
X94030000Y-61040000D02*
X94030000Y-63876000D01*
X94070000Y-56137000D02*
X94070000Y-58960000D01*
X94070000Y-61040000D02*
X94070000Y-63863000D01*
X94110000Y-56151000D02*
X94110000Y-58960000D01*
X94110000Y-61040000D02*
X94110000Y-63849000D01*
X94150000Y-56165000D02*
X94150000Y-58960000D01*
X94150000Y-61040000D02*
X94150000Y-63835000D01*
X94190000Y-56180000D02*
X94190000Y-58960000D01*
X94190000Y-61040000D02*
X94190000Y-63820000D01*
X94230000Y-56195000D02*
X94230000Y-58960000D01*
X94230000Y-61040000D02*
X94230000Y-63805000D01*
X94270000Y-56211000D02*
X94270000Y-58960000D01*
X94270000Y-61040000D02*
X94270000Y-63789000D01*
X94310000Y-56227000D02*
X94310000Y-58960000D01*
X94310000Y-61040000D02*
X94310000Y-63773000D01*
X94350000Y-56243000D02*
X94350000Y-58960000D01*
X94350000Y-61040000D02*
X94350000Y-63757000D01*
X94390000Y-56260000D02*
X94390000Y-58960000D01*
X94390000Y-61040000D02*
X94390000Y-63740000D01*
X94430000Y-56278000D02*
X94430000Y-58960000D01*
X94430000Y-61040000D02*
X94430000Y-63722000D01*
X94470000Y-56296000D02*
X94470000Y-58960000D01*
X94470000Y-61040000D02*
X94470000Y-63704000D01*
X94510000Y-56315000D02*
X94510000Y-58960000D01*
X94510000Y-61040000D02*
X94510000Y-63685000D01*
X94550000Y-56334000D02*
X94550000Y-58960000D01*
X94550000Y-61040000D02*
X94550000Y-63666000D01*
X94590000Y-56354000D02*
X94590000Y-58960000D01*
X94590000Y-61040000D02*
X94590000Y-63646000D01*
X94630000Y-56374000D02*
X94630000Y-58960000D01*
X94630000Y-61040000D02*
X94630000Y-63626000D01*
X94670000Y-56395000D02*
X94670000Y-58960000D01*
X94670000Y-61040000D02*
X94670000Y-63605000D01*
X94710000Y-56416000D02*
X94710000Y-58960000D01*
X94710000Y-61040000D02*
X94710000Y-63584000D01*
X94750000Y-56438000D02*
X94750000Y-58960000D01*
X94750000Y-61040000D02*
X94750000Y-63562000D01*
X94790000Y-56461000D02*
X94790000Y-58960000D01*
X94790000Y-61040000D02*
X94790000Y-63539000D01*
X94830000Y-56484000D02*
X94830000Y-58960000D01*
X94830000Y-61040000D02*
X94830000Y-63516000D01*
X94870000Y-56507000D02*
X94870000Y-58960000D01*
X94870000Y-61040000D02*
X94870000Y-63493000D01*
X94910000Y-56532000D02*
X94910000Y-58960000D01*
X94910000Y-61040000D02*
X94910000Y-63468000D01*
X94950000Y-56557000D02*
X94950000Y-58960000D01*
X94950000Y-61040000D02*
X94950000Y-63443000D01*
X94990000Y-56582000D02*
X94990000Y-58960000D01*
X94990000Y-61040000D02*
X94990000Y-63418000D01*
X95030000Y-56608000D02*
X95030000Y-58960000D01*
X95030000Y-61040000D02*
X95030000Y-63392000D01*
X95070000Y-56635000D02*
X95070000Y-58960000D01*
X95070000Y-61040000D02*
X95070000Y-63365000D01*
X95110000Y-56663000D02*
X95110000Y-58960000D01*
X95110000Y-61040000D02*
X95110000Y-63337000D01*
X95150000Y-56691000D02*
X95150000Y-58960000D01*
X95150000Y-61040000D02*
X95150000Y-63309000D01*
X95190000Y-56720000D02*
X95190000Y-58960000D01*
X95190000Y-61040000D02*
X95190000Y-63280000D01*
X95230000Y-56750000D02*
X95230000Y-58960000D01*
X95230000Y-61040000D02*
X95230000Y-63250000D01*
X95270000Y-56781000D02*
X95270000Y-58960000D01*
X95270000Y-61040000D02*
X95270000Y-63219000D01*
X95310000Y-56812000D02*
X95310000Y-58960000D01*
X95310000Y-61040000D02*
X95310000Y-63188000D01*
X95350000Y-56844000D02*
X95350000Y-58960000D01*
X95350000Y-61040000D02*
X95350000Y-63156000D01*
X95390000Y-56877000D02*
X95390000Y-58960000D01*
X95390000Y-61040000D02*
X95390000Y-63123000D01*
X95430000Y-56911000D02*
X95430000Y-58960000D01*
X95430000Y-61040000D02*
X95430000Y-63089000D01*
X95470000Y-56945000D02*
X95470000Y-58960000D01*
X95470000Y-61040000D02*
X95470000Y-63055000D01*
X95510000Y-56981000D02*
X95510000Y-58960000D01*
X95510000Y-61040000D02*
X95510000Y-63019000D01*
X95550000Y-57018000D02*
X95550000Y-62982000D01*
X95590000Y-57055000D02*
X95590000Y-62945000D01*
X95630000Y-57094000D02*
X95630000Y-62906000D01*
X95670000Y-57133000D02*
X95670000Y-62867000D01*
X95710000Y-57174000D02*
X95710000Y-62826000D01*
X95750000Y-57216000D02*
X95750000Y-62784000D01*
X95790000Y-57259000D02*
X95790000Y-62741000D01*
X95830000Y-57304000D02*
X95830000Y-62696000D01*
X95870000Y-57349000D02*
X95870000Y-62651000D01*
X95910000Y-57396000D02*
X95910000Y-62604000D01*
X95950000Y-57445000D02*
X95950000Y-62555000D01*
X95990000Y-57495000D02*
X95990000Y-62505000D01*
X96030000Y-57547000D02*
X96030000Y-62453000D01*
X96070000Y-57600000D02*
X96070000Y-62400000D01*
X96110000Y-57656000D02*
X96110000Y-62344000D01*
X96150000Y-57713000D02*
X96150000Y-62287000D01*
X96190000Y-57773000D02*
X96190000Y-62227000D01*
X96230000Y-57835000D02*
X96230000Y-62165000D01*
X96270000Y-57899000D02*
X96270000Y-62101000D01*
X96310000Y-57966000D02*
X96310000Y-62034000D01*
X96350000Y-58036000D02*
X96350000Y-61964000D01*
X96390000Y-58110000D02*
X96390000Y-61890000D01*
X96430000Y-58187000D02*
X96430000Y-61813000D01*
X96470000Y-58269000D02*
X96470000Y-61731000D01*
X96510000Y-58356000D02*
X96510000Y-61644000D01*
X96550000Y-58448000D02*
X96550000Y-61552000D01*
X96590000Y-58547000D02*
X96590000Y-61453000D01*
X96630000Y-58654000D02*
X96630000Y-61346000D01*
X96670000Y-58772000D02*
X96670000Y-61228000D01*
X96710000Y-58903000D02*
X96710000Y-61097000D01*
X96750000Y-59053000D02*
X96750000Y-60947000D01*
X96790000Y-59232000D02*
X96790000Y-60768000D01*
X96830000Y-59467000D02*
X96830000Y-60533000D01*
X96870000Y-60000000D02*
G75*
G02*
X88630000Y-60000000I-4120000J0D01*
G01*
X88630000Y-60000000D02*
G75*
G02*
X96870000Y-60000000I4120000J0D01*
G01*
%TO.C,C1*%
X116520354Y-71625000D02*
X117520354Y-71625000D01*
X117020354Y-71125000D02*
X117020354Y-72125000D01*
X122000000Y-69420000D02*
X122000000Y-79580000D01*
X122040000Y-69420000D02*
X122040000Y-79580000D01*
X122080000Y-69421000D02*
X122080000Y-79579000D01*
X122120000Y-69421000D02*
X122120000Y-79579000D01*
X122160000Y-69423000D02*
X122160000Y-79577000D01*
X122200000Y-69424000D02*
X122200000Y-79576000D01*
X122240000Y-69426000D02*
X122240000Y-79574000D01*
X122280000Y-69428000D02*
X122280000Y-79572000D01*
X122320000Y-69430000D02*
X122320000Y-79570000D01*
X122360000Y-69433000D02*
X122360000Y-79567000D01*
X122400000Y-69436000D02*
X122400000Y-79564000D01*
X122440000Y-69439000D02*
X122440000Y-79561000D01*
X122480000Y-69443000D02*
X122480000Y-79557000D01*
X122520000Y-69446000D02*
X122520000Y-79554000D01*
X122560000Y-69451000D02*
X122560000Y-79549000D01*
X122600000Y-69455000D02*
X122600000Y-79545000D01*
X122640000Y-69460000D02*
X122640000Y-79540000D01*
X122680000Y-69465000D02*
X122680000Y-79535000D01*
X122720000Y-69471000D02*
X122720000Y-79529000D01*
X122760000Y-69477000D02*
X122760000Y-79523000D01*
X122800000Y-69483000D02*
X122800000Y-79517000D01*
X122840000Y-69489000D02*
X122840000Y-79511000D01*
X122880000Y-69496000D02*
X122880000Y-79504000D01*
X122920000Y-69503000D02*
X122920000Y-79497000D01*
X122960000Y-69511000D02*
X122960000Y-79489000D01*
X123000000Y-69519000D02*
X123000000Y-79481000D01*
X123040000Y-69527000D02*
X123040000Y-79473000D01*
X123080000Y-69535000D02*
X123080000Y-79465000D01*
X123120000Y-69544000D02*
X123120000Y-79456000D01*
X123160000Y-69553000D02*
X123160000Y-79447000D01*
X123200000Y-69563000D02*
X123200000Y-79437000D01*
X123240000Y-69572000D02*
X123240000Y-79428000D01*
X123280000Y-69583000D02*
X123280000Y-73260000D01*
X123280000Y-75740000D02*
X123280000Y-79417000D01*
X123320000Y-69593000D02*
X123320000Y-73260000D01*
X123320000Y-75740000D02*
X123320000Y-79407000D01*
X123360000Y-69604000D02*
X123360000Y-73260000D01*
X123360000Y-75740000D02*
X123360000Y-79396000D01*
X123400000Y-69615000D02*
X123400000Y-73260000D01*
X123400000Y-75740000D02*
X123400000Y-79385000D01*
X123440000Y-69627000D02*
X123440000Y-73260000D01*
X123440000Y-75740000D02*
X123440000Y-79373000D01*
X123480000Y-69639000D02*
X123480000Y-73260000D01*
X123480000Y-75740000D02*
X123480000Y-79361000D01*
X123520000Y-69651000D02*
X123520000Y-73260000D01*
X123520000Y-75740000D02*
X123520000Y-79349000D01*
X123560000Y-69663000D02*
X123560000Y-73260000D01*
X123560000Y-75740000D02*
X123560000Y-79337000D01*
X123600000Y-69676000D02*
X123600000Y-73260000D01*
X123600000Y-75740000D02*
X123600000Y-79324000D01*
X123640000Y-69690000D02*
X123640000Y-73260000D01*
X123640000Y-75740000D02*
X123640000Y-79310000D01*
X123680000Y-69703000D02*
X123680000Y-73260000D01*
X123680000Y-75740000D02*
X123680000Y-79297000D01*
X123720000Y-69718000D02*
X123720000Y-73260000D01*
X123720000Y-75740000D02*
X123720000Y-79282000D01*
X123760000Y-69732000D02*
X123760000Y-73260000D01*
X123760000Y-75740000D02*
X123760000Y-79268000D01*
X123800000Y-69747000D02*
X123800000Y-73260000D01*
X123800000Y-75740000D02*
X123800000Y-79253000D01*
X123840000Y-69762000D02*
X123840000Y-73260000D01*
X123840000Y-75740000D02*
X123840000Y-79238000D01*
X123880000Y-69778000D02*
X123880000Y-73260000D01*
X123880000Y-75740000D02*
X123880000Y-79222000D01*
X123920000Y-69794000D02*
X123920000Y-73260000D01*
X123920000Y-75740000D02*
X123920000Y-79206000D01*
X123960000Y-69810000D02*
X123960000Y-73260000D01*
X123960000Y-75740000D02*
X123960000Y-79190000D01*
X124000000Y-69827000D02*
X124000000Y-73260000D01*
X124000000Y-75740000D02*
X124000000Y-79173000D01*
X124040000Y-69844000D02*
X124040000Y-73260000D01*
X124040000Y-75740000D02*
X124040000Y-79156000D01*
X124080000Y-69862000D02*
X124080000Y-73260000D01*
X124080000Y-75740000D02*
X124080000Y-79138000D01*
X124120000Y-69880000D02*
X124120000Y-73260000D01*
X124120000Y-75740000D02*
X124120000Y-79120000D01*
X124160000Y-69898000D02*
X124160000Y-73260000D01*
X124160000Y-75740000D02*
X124160000Y-79102000D01*
X124200000Y-69917000D02*
X124200000Y-73260000D01*
X124200000Y-75740000D02*
X124200000Y-79083000D01*
X124240000Y-69936000D02*
X124240000Y-73260000D01*
X124240000Y-75740000D02*
X124240000Y-79064000D01*
X124280000Y-69956000D02*
X124280000Y-73260000D01*
X124280000Y-75740000D02*
X124280000Y-79044000D01*
X124320000Y-69976000D02*
X124320000Y-73260000D01*
X124320000Y-75740000D02*
X124320000Y-79024000D01*
X124360000Y-69996000D02*
X124360000Y-73260000D01*
X124360000Y-75740000D02*
X124360000Y-79004000D01*
X124400000Y-70017000D02*
X124400000Y-73260000D01*
X124400000Y-75740000D02*
X124400000Y-78983000D01*
X124440000Y-70039000D02*
X124440000Y-73260000D01*
X124440000Y-75740000D02*
X124440000Y-78961000D01*
X124480000Y-70061000D02*
X124480000Y-73260000D01*
X124480000Y-75740000D02*
X124480000Y-78939000D01*
X124520000Y-70083000D02*
X124520000Y-73260000D01*
X124520000Y-75740000D02*
X124520000Y-78917000D01*
X124560000Y-70106000D02*
X124560000Y-73260000D01*
X124560000Y-75740000D02*
X124560000Y-78894000D01*
X124600000Y-70129000D02*
X124600000Y-73260000D01*
X124600000Y-75740000D02*
X124600000Y-78871000D01*
X124640000Y-70153000D02*
X124640000Y-73260000D01*
X124640000Y-75740000D02*
X124640000Y-78847000D01*
X124680000Y-70177000D02*
X124680000Y-73260000D01*
X124680000Y-75740000D02*
X124680000Y-78823000D01*
X124720000Y-70202000D02*
X124720000Y-73260000D01*
X124720000Y-75740000D02*
X124720000Y-78798000D01*
X124760000Y-70228000D02*
X124760000Y-73260000D01*
X124760000Y-75740000D02*
X124760000Y-78772000D01*
X124800000Y-70253000D02*
X124800000Y-73260000D01*
X124800000Y-75740000D02*
X124800000Y-78747000D01*
X124840000Y-70280000D02*
X124840000Y-73260000D01*
X124840000Y-75740000D02*
X124840000Y-78720000D01*
X124880000Y-70307000D02*
X124880000Y-73260000D01*
X124880000Y-75740000D02*
X124880000Y-78693000D01*
X124920000Y-70334000D02*
X124920000Y-73260000D01*
X124920000Y-75740000D02*
X124920000Y-78666000D01*
X124960000Y-70362000D02*
X124960000Y-73260000D01*
X124960000Y-75740000D02*
X124960000Y-78638000D01*
X125000000Y-70391000D02*
X125000000Y-73260000D01*
X125000000Y-75740000D02*
X125000000Y-78609000D01*
X125040000Y-70420000D02*
X125040000Y-73260000D01*
X125040000Y-75740000D02*
X125040000Y-78580000D01*
X125080000Y-70450000D02*
X125080000Y-73260000D01*
X125080000Y-75740000D02*
X125080000Y-78550000D01*
X125120000Y-70480000D02*
X125120000Y-73260000D01*
X125120000Y-75740000D02*
X125120000Y-78520000D01*
X125160000Y-70512000D02*
X125160000Y-73260000D01*
X125160000Y-75740000D02*
X125160000Y-78488000D01*
X125200000Y-70543000D02*
X125200000Y-73260000D01*
X125200000Y-75740000D02*
X125200000Y-78457000D01*
X125240000Y-70576000D02*
X125240000Y-73260000D01*
X125240000Y-75740000D02*
X125240000Y-78424000D01*
X125280000Y-70609000D02*
X125280000Y-73260000D01*
X125280000Y-75740000D02*
X125280000Y-78391000D01*
X125320000Y-70642000D02*
X125320000Y-73260000D01*
X125320000Y-75740000D02*
X125320000Y-78358000D01*
X125360000Y-70677000D02*
X125360000Y-73260000D01*
X125360000Y-75740000D02*
X125360000Y-78323000D01*
X125400000Y-70712000D02*
X125400000Y-73260000D01*
X125400000Y-75740000D02*
X125400000Y-78288000D01*
X125440000Y-70748000D02*
X125440000Y-73260000D01*
X125440000Y-75740000D02*
X125440000Y-78252000D01*
X125480000Y-70784000D02*
X125480000Y-73260000D01*
X125480000Y-75740000D02*
X125480000Y-78216000D01*
X125520000Y-70822000D02*
X125520000Y-73260000D01*
X125520000Y-75740000D02*
X125520000Y-78178000D01*
X125560000Y-70860000D02*
X125560000Y-73260000D01*
X125560000Y-75740000D02*
X125560000Y-78140000D01*
X125600000Y-70899000D02*
X125600000Y-73260000D01*
X125600000Y-75740000D02*
X125600000Y-78101000D01*
X125640000Y-70939000D02*
X125640000Y-73260000D01*
X125640000Y-75740000D02*
X125640000Y-78061000D01*
X125680000Y-70980000D02*
X125680000Y-73260000D01*
X125680000Y-75740000D02*
X125680000Y-78020000D01*
X125720000Y-71022000D02*
X125720000Y-73260000D01*
X125720000Y-75740000D02*
X125720000Y-77978000D01*
X125760000Y-71065000D02*
X125760000Y-77935000D01*
X125800000Y-71109000D02*
X125800000Y-77891000D01*
X125840000Y-71153000D02*
X125840000Y-77847000D01*
X125880000Y-71199000D02*
X125880000Y-77801000D01*
X125920000Y-71246000D02*
X125920000Y-77754000D01*
X125960000Y-71295000D02*
X125960000Y-77705000D01*
X126000000Y-71344000D02*
X126000000Y-77656000D01*
X126040000Y-71395000D02*
X126040000Y-77605000D01*
X126080000Y-71447000D02*
X126080000Y-77553000D01*
X126120000Y-71500000D02*
X126120000Y-77500000D01*
X126160000Y-71555000D02*
X126160000Y-77445000D01*
X126200000Y-71612000D02*
X126200000Y-77388000D01*
X126240000Y-71670000D02*
X126240000Y-77330000D01*
X126280000Y-71730000D02*
X126280000Y-77270000D01*
X126320000Y-71792000D02*
X126320000Y-77208000D01*
X126360000Y-71856000D02*
X126360000Y-77144000D01*
X126400000Y-71922000D02*
X126400000Y-77078000D01*
X126440000Y-71990000D02*
X126440000Y-77010000D01*
X126480000Y-72061000D02*
X126480000Y-76939000D01*
X126520000Y-72135000D02*
X126520000Y-76865000D01*
X126560000Y-72212000D02*
X126560000Y-76788000D01*
X126600000Y-72292000D02*
X126600000Y-76708000D01*
X126640000Y-72376000D02*
X126640000Y-76624000D01*
X126680000Y-72463000D02*
X126680000Y-76537000D01*
X126720000Y-72556000D02*
X126720000Y-76444000D01*
X126760000Y-72654000D02*
X126760000Y-76346000D01*
X126800000Y-72758000D02*
X126800000Y-76242000D01*
X126840000Y-72870000D02*
X126840000Y-76130000D01*
X126880000Y-72991000D02*
X126880000Y-76009000D01*
X126920000Y-73123000D02*
X126920000Y-75877000D01*
X126960000Y-73270000D02*
X126960000Y-75730000D01*
X127000000Y-73438000D02*
X127000000Y-75562000D01*
X127040000Y-73638000D02*
X127040000Y-75362000D01*
X127080000Y-73901000D02*
X127080000Y-75099000D01*
X127120000Y-74500000D02*
G75*
G02*
X116880000Y-74500000I-5120000J0D01*
G01*
X116880000Y-74500000D02*
G75*
G02*
X127120000Y-74500000I5120000J0D01*
G01*
%TD*%
M02*
